<svg width="166" height="142" viewBox="0 0 166 142" fill="none" xmlns="http://www.w3.org/2000/svg">
<path d="M2.13732 141.755C1.50325 141.513 0.96098 141.1 0.580179 140.569C0.199378 140.037 -0.00263104 139.412 2.58755e-05 138.773V35.5C0.00460364 31.2217 1.82792 27.1199 5.06974 24.0946C8.31157 21.0694 12.7071 19.3679 17.2917 19.3636H20.75V16.1364C20.7546 11.858 22.5779 7.75622 25.8197 4.731C29.0616 1.70577 33.4571 0.00427191 38.0417 0H148.708C153.293 0.00427191 157.688 1.70577 160.93 4.731C164.172 7.75622 165.995 11.858 166 16.1364V87.1364C165.995 91.4147 164.172 95.5165 160.93 98.5417C157.688 101.567 153.293 103.268 148.708 103.273H145.25V106.5C145.245 110.778 143.422 114.88 140.18 117.905C136.938 120.931 132.543 122.632 127.958 122.636H25.6401L5.9034 141.054C5.58303 141.355 5.20203 141.593 4.78236 141.756C4.36268 141.918 3.91265 142.001 3.45836 142C3.00486 142.001 2.55568 141.918 2.13732 141.755ZM6.91669 35.5V130.982L21.7633 117.131C22.0841 116.83 22.4651 116.592 22.8847 116.429C23.3042 116.266 23.754 116.182 24.2084 116.182H127.958C130.71 116.182 133.349 115.162 135.295 113.346C137.24 111.53 138.333 109.068 138.333 106.5V35.5C138.333 32.9322 137.24 30.4697 135.295 28.654C133.349 26.8383 130.71 25.8182 127.958 25.8182H17.2917C14.5401 25.8182 11.9012 26.8383 9.9555 28.654C8.00981 30.4697 6.91669 32.9322 6.91669 35.5ZM24.2084 16.1364V19.3636H127.958C132.543 19.3679 136.938 21.0694 140.18 24.0946C143.422 27.1199 145.245 31.2217 145.25 35.5V100.045H148.708C152.377 100.045 155.896 98.6854 158.49 96.2645C161.084 93.8435 162.542 90.5601 162.542 87.1364V16.1364C162.542 12.7127 161.084 9.42917 158.49 7.00825C155.896 4.58732 152.377 3.22727 148.708 3.22727H38.0417C34.3729 3.22727 30.8543 4.58732 28.26 7.00825C25.6658 9.42917 24.2084 12.7127 24.2084 16.1364ZM38.0417 83.9091C37.1245 83.9091 36.2449 83.569 35.5963 82.9638C34.9478 82.3586 34.5834 81.5377 34.5834 80.6818C34.5834 79.8259 34.9478 79.0051 35.5963 78.3998C36.2449 77.7946 37.1245 77.4545 38.0417 77.4545H107.208C108.126 77.4545 109.005 77.7946 109.654 78.3998C110.302 79.0051 110.667 79.8259 110.667 80.6818C110.667 81.5377 110.302 82.3586 109.654 82.9638C109.005 83.569 108.126 83.9091 107.208 83.9091H38.0417ZM38.0417 64.5454C37.1245 64.5454 36.2449 64.2054 35.5963 63.6002C34.9478 62.9949 34.5834 62.1741 34.5834 61.3182C34.5834 60.4622 34.9478 59.6414 35.5963 59.0362C36.2449 58.431 37.1245 58.0909 38.0417 58.0909H107.208C108.126 58.0909 109.005 58.431 109.654 59.0362C110.302 59.6414 110.667 60.4622 110.667 61.3182C110.667 62.1741 110.302 62.9949 109.654 63.6002C109.005 64.2054 108.126 64.5454 107.208 64.5454H38.0417Z" fill="#FFD9B0"/>
</svg>
