<svg width="144" height="132" viewBox="0 0 144 132" fill="none" xmlns="http://www.w3.org/2000/svg">
<path d="M96 7.33333H20C13.3726 7.33333 8 12.2582 8 18.3333V113.667C8 119.742 13.3726 124.667 20 124.667H96V7.33333ZM104 7.33333V124.667H124C130.627 124.667 136 119.742 136 113.667V18.3333C136 12.2582 130.627 7.33333 124 7.33333H104ZM0 18.3333C0 8.20811 8.9543 0 20 0H124C135.046 0 144 8.20811 144 18.3333V113.667C144 123.792 135.046 132 124 132H20C8.9543 132 0 123.792 0 113.667V18.3333ZM28 36.6667C25.7909 36.6667 24 35.025 24 33C24 30.975 25.7909 29.3333 28 29.3333H76C78.2091 29.3333 80 30.975 80 33C80 35.025 78.2091 36.6667 76 36.6667H28ZM28 51.3333C25.7909 51.3333 24 49.6917 24 47.6667C24 45.6416 25.7909 44 28 44H76C78.2091 44 80 45.6416 80 47.6667C80 49.6917 78.2091 51.3333 76 51.3333H28ZM28 66C25.7909 66 24 64.3584 24 62.3333C24 60.3083 25.7909 58.6667 28 58.6667H60C62.2091 58.6667 64 60.3083 64 62.3333C64 64.3584 62.2091 66 60 66H28ZM28 88C25.7909 88 24 86.3584 24 84.3333C24 82.3083 25.7909 80.6667 28 80.6667H76C78.2091 80.6667 80 82.3083 80 84.3333C80 86.3584 78.2091 88 76 88H28ZM28 102.667C25.7909 102.667 24 101.025 24 99C24 96.975 25.7909 95.3333 28 95.3333H60C62.2091 95.3333 64 96.975 64 99C64 101.025 62.2091 102.667 60 102.667H28Z" fill="#C0FFAE"/>
</svg>
