<svg width="142" height="132" viewBox="0 0 142 132" fill="none" xmlns="http://www.w3.org/2000/svg">
<path d="M51.4262 104.389C49.7572 112.287 42.2691 118.245 33.2842 118.245H18.4929C16.4506 118.245 14.795 116.706 14.795 114.808V101.056C14.795 92.7034 21.2039 85.7419 29.6997 84.1903L29.7871 81.8333C29.935 77.8481 30.3764 73.9366 31.0916 70.1163H3.70149C1.0854 70.1163 -0.703463 67.6599 0.268128 65.4017L15.0595 31.0238C15.6211 29.7186 16.9808 28.8628 18.4929 28.8628H51.7734C51.9612 28.8628 52.1456 28.8758 52.3258 28.9009C69.7383 10.4462 95.5907 -0.860666 124.039 0.0513176C128.555 0.196101 133.054 0.652879 137.497 1.41788C139.003 1.67711 140.181 2.77235 140.46 4.17221C146.528 34.6376 134.252 64.3121 110.9 83.3663C110.926 83.5299 110.939 83.6973 110.939 83.8675V114.808C110.939 116.213 110.018 117.477 108.614 118L71.636 131.751C69.207 132.654 66.5648 130.991 66.5648 128.559V103.084C62.3996 103.763 58.1884 104.172 53.9615 104.308L51.4262 104.389ZM44.2852 102.394L31.845 90.8291C26.3982 91.4851 22.1907 95.814 22.1907 101.056V111.37H33.2842C38.9233 111.37 43.5796 107.458 44.2852 102.394ZM73.9605 101.586V123.481L103.543 112.48V88.7713C94.8007 94.539 84.8421 98.9425 73.9605 101.586ZM32.6984 63.2407C35.5179 53.2125 40.2552 43.9302 46.5131 35.7384H20.9964L9.16332 63.2407H32.6984ZM49.5541 97.5692L53.7066 97.4361C57.8565 97.3031 61.9901 96.8833 66.0731 96.1804C110.718 88.4942 140.49 49.2144 133.618 7.77971C130.361 7.31463 127.078 7.02842 123.784 6.92282C77.5474 5.44058 38.7728 39.0852 37.1784 82.0702L37.0352 85.9307L49.5541 97.5692ZM88.7518 70.1163C76.4983 70.1163 66.5648 60.8814 66.5648 49.4895C66.5648 38.0977 76.4983 28.8628 88.7518 28.8628C101.005 28.8628 110.939 38.0977 110.939 49.4895C110.939 60.8814 101.005 70.1163 88.7518 70.1163ZM88.7518 63.2407C96.9209 63.2407 103.543 57.0841 103.543 49.4895C103.543 41.895 96.9209 35.7384 88.7518 35.7384C80.5828 35.7384 73.9605 41.895 73.9605 49.4895C73.9605 57.0841 80.5828 63.2407 88.7518 63.2407Z" fill="#FFB0B0"/>
</svg>
