<!DOCTYPE svg PUBLIC "-//W3C//DTD SVG 1.1//EN" "http://www.w3.org/Graphics/SVG/1.1/DTD/svg11.dtd">
<!-- Uploaded to: SVG Repo, www.svgrepo.com, Transformed by: SVG Repo Mixer Tools -->
<svg height="64px" width="64px" version="1.1" id="Layer_1" xmlns="http://www.w3.org/2000/svg" xmlns:xlink="http://www.w3.org/1999/xlink" viewBox="-81.92 -81.92 675.84 675.84" xml:space="preserve" fill="#000000">
<g id="SVGRepo_bgCarrier" stroke-width="0" transform="translate(0,0), scale(1)">
<path transform="translate(-81.92, -81.92), scale(21.12)" d="M16,30.50858229183053C18.667908649029002,29.76592372847699,19.12757991281218,25.98765770567943,21.423091314087294,24.438494800139132C23.63312368428894,22.947018797860125,27.117516553995607,23.90590397920549,28.82185641101308,21.855545621626273C30.56032153287994,19.764133819394893,31.25962113247086,16.44098104301348,30.12573216354264,13.969026328095918C28.979212235099354,11.469535266337697,25.66392020090428,11.037954793458775,23.253058453300408,9.71518907419204C21.691143433589886,8.858214323759201,20.02535770703042,8.45099394033403,18.473557614487785,7.5758363976816145C16.30411131745948,6.352349365203873,14.837796933137374,3.4703939511671873,12.348954156100742,3.565679760832648C9.927609047418311,3.6583814096828884,8.612521868406215,6.421544608993603,6.794038514055403,8.022988963627538C4.653748968712957,9.907831407453102,1.6376693983487822,11.102124664867217,0.723544727534664,13.803577322634418C-0.2262437441665236,16.610424871020477,0.544705212638688,19.805333571275998,1.9187171034257187,22.43070642571652C3.2568462702301524,24.987516897168252,5.710656539812382,26.679552551555187,8.213826574521327,28.115522339299055C10.61770735252803,29.49453380184128,13.330172304184625,31.251775055082515,16,30.50858229183053" fill="#7ed0ec" strokewidth="0"/>
</g>
<g id="SVGRepo_tracerCarrier" stroke-linecap="round" stroke-linejoin="round" stroke="#CCCCCC" stroke-width="7.168000000000001"> <path style="fill:#1E0478;" d="M429.726,75.614c2.007,4.002,1.582,8.771-1.086,12.36L361.798,177.6l66.417,89.19 c2.668,3.589,3.081,8.358,1.086,12.348c-2.007,3.99-6.092,6.517-10.554,6.517H131.392v202.734h14.969 c6.517,0,11.805,5.289,11.805,11.805c0,6.528-5.289,11.805-11.805,11.805H92.824c-6.528,0-11.805-5.277-11.805-11.805 c0-6.517,5.277-11.805,11.805-11.805h14.957V54.057c-9.739-4.486-16.516-14.332-16.516-25.736C91.265,12.703,103.968,0,119.586,0 s28.321,12.703,28.321,28.321c0,11.404-6.776,21.25-16.516,25.736v15.052h287.78C423.646,69.109,427.719,71.623,429.726,75.614z M337.608,170.541l58.035-77.821H131.392v39.206h58.873c6.517,0,11.805,5.289,11.805,11.805c0,6.528-5.289,11.805-11.805,11.805 h-58.873v43.68h37.624c6.517,0,11.805,5.289,11.805,11.805c0,6.517-5.289,11.805-11.805,11.805h-37.624v39.218h263.851 l-57.634-77.396C334.492,180.457,334.492,174.72,337.608,170.541z M126.658,28.321c0-3.896-3.176-7.071-7.071-7.071 c-3.896,0-7.071,3.176-7.071,7.071s3.176,7.071,7.071,7.071S126.658,32.217,126.658,28.321z"/> <path style="fill:#94E7EF;" d="M395.644,92.72l-58.035,77.821c-3.117,4.179-3.117,9.917,0,14.107l57.634,77.396H131.392v-39.218 h37.624c6.517,0,11.805-5.289,11.805-11.805c0-6.517-5.289-11.805-11.805-11.805h-37.624v-43.68h58.874 c6.517,0,11.805-5.277,11.805-11.805c0-6.517-5.289-11.805-11.805-11.805h-58.873V92.72H395.644z"/> <path style="fill:#9B8CCC;" d="M119.586,21.25c3.896,0,7.071,3.176,7.071,7.071s-3.176,7.071-7.071,7.071 c-3.896,0-7.071-3.176-7.071-7.071S115.691,21.25,119.586,21.25z"/> </g>
<g id="SVGRepo_iconCarrier"> <path style="fill:#1E0478;" d="M429.726,75.614c2.007,4.002,1.582,8.771-1.086,12.36L361.798,177.6l66.417,89.19 c2.668,3.589,3.081,8.358,1.086,12.348c-2.007,3.99-6.092,6.517-10.554,6.517H131.392v202.734h14.969 c6.517,0,11.805,5.289,11.805,11.805c0,6.528-5.289,11.805-11.805,11.805H92.824c-6.528,0-11.805-5.277-11.805-11.805 c0-6.517,5.277-11.805,11.805-11.805h14.957V54.057c-9.739-4.486-16.516-14.332-16.516-25.736C91.265,12.703,103.968,0,119.586,0 s28.321,12.703,28.321,28.321c0,11.404-6.776,21.25-16.516,25.736v15.052h287.78C423.646,69.109,427.719,71.623,429.726,75.614z M337.608,170.541l58.035-77.821H131.392v39.206h58.873c6.517,0,11.805,5.289,11.805,11.805c0,6.528-5.289,11.805-11.805,11.805 h-58.873v43.68h37.624c6.517,0,11.805,5.289,11.805,11.805c0,6.517-5.289,11.805-11.805,11.805h-37.624v39.218h263.851 l-57.634-77.396C334.492,180.457,334.492,174.72,337.608,170.541z M126.658,28.321c0-3.896-3.176-7.071-7.071-7.071 c-3.896,0-7.071,3.176-7.071,7.071s3.176,7.071,7.071,7.071S126.658,32.217,126.658,28.321z"/> <path style="fill:#94E7EF;" d="M395.644,92.72l-58.035,77.821c-3.117,4.179-3.117,9.917,0,14.107l57.634,77.396H131.392v-39.218 h37.624c6.517,0,11.805-5.289,11.805-11.805c0-6.517-5.289-11.805-11.805-11.805h-37.624v-43.68h58.874 c6.517,0,11.805-5.277,11.805-11.805c0-6.517-5.289-11.805-11.805-11.805h-58.873V92.72H395.644z"/> <path style="fill:#9B8CCC;" d="M119.586,21.25c3.896,0,7.071,3.176,7.071,7.071s-3.176,7.071-7.071,7.071 c-3.896,0-7.071-3.176-7.071-7.071S115.691,21.25,119.586,21.25z"/> </g>
</svg>