<svg width="46" height="48" viewBox="0 0 46 48" fill="none" xmlns="http://www.w3.org/2000/svg">
<path d="M18.4 26.4H2.3C1.69 26.4 1.10499 26.6529 0.673654 27.1029C0.242321 27.553 0 28.1635 0 28.8V45.6C0 46.2365 0.242321 46.847 0.673654 47.2971C1.10499 47.7471 1.69 48 2.3 48H18.4C19.01 48 19.595 47.7471 20.0263 47.2971C20.4577 46.847 20.7 46.2365 20.7 45.6V28.8C20.7 28.1635 20.4577 27.553 20.0263 27.1029C19.595 26.6529 19.01 26.4 18.4 26.4ZM16.1 43.2H4.6V31.2H16.1V43.2ZM43.7 0H27.6C26.99 0 26.405 0.252856 25.9737 0.702944C25.5423 1.15303 25.3 1.76348 25.3 2.4V19.2C25.3 19.8365 25.5423 20.447 25.9737 20.8971C26.405 21.3471 26.99 21.6 27.6 21.6H43.7C44.31 21.6 44.895 21.3471 45.3263 20.8971C45.7577 20.447 46 19.8365 46 19.2V2.4C46 1.76348 45.7577 1.15303 45.3263 0.702944C44.895 0.252856 44.31 0 43.7 0ZM41.4 16.8H29.9V4.8H41.4V16.8ZM43.7 26.4H27.6C26.99 26.4 26.405 26.6529 25.9737 27.1029C25.5423 27.553 25.3 28.1635 25.3 28.8V45.6C25.3 46.2365 25.5423 46.847 25.9737 47.2971C26.405 47.7471 26.99 48 27.6 48H43.7C44.31 48 44.895 47.7471 45.3263 47.2971C45.7577 46.847 46 46.2365 46 45.6V28.8C46 28.1635 45.7577 27.553 45.3263 27.1029C44.895 26.6529 44.31 26.4 43.7 26.4ZM41.4 43.2H29.9V31.2H41.4V43.2ZM18.4 0H2.3C1.69 0 1.10499 0.252856 0.673654 0.702944C0.242321 1.15303 0 1.76348 0 2.4V19.2C0 19.8365 0.242321 20.447 0.673654 20.8971C1.10499 21.3471 1.69 21.6 2.3 21.6H18.4C19.01 21.6 19.595 21.3471 20.0263 20.8971C20.4577 20.447 20.7 19.8365 20.7 19.2V2.4C20.7 1.76348 20.4577 1.15303 20.0263 0.702944C19.595 0.252856 19.01 0 18.4 0ZM16.1 16.8H4.6V4.8H16.1V16.8Z" fill="white"/>
</svg>
